<svg xmlns="http://www.w3.org/2000/svg" width="1966" height="646" viewBox="0 0 1966 646">
  <defs>
    <style>
      .cls-1 {
        fill: #434343;
      }

      .cls-1, .cls-2, .cls-3, .cls-4 {
        fill-rule: evenodd;
      }

      .cls-2 {
        fill: #fff;
      }

      .cls-3 {
        fill: #35698d;
      }

      .cls-4 {
        fill: #ecc31c;
      }
    </style>
  </defs>
  <path id="Keck" class="cls-1" d="M935.367,236.963V384.071L1074.03,236.963h97.41L1032.78,377.114l152.08,214.7h-97.91L980.1,432.279l-44.729,45.226V591.812H857.34V236.963h78.027ZM1329.23,395.005q-12.675-13.908-38.52-13.915-16.89,0-28.08,5.715a53.638,53.638,0,0,0-17.89,14.164,51.981,51.981,0,0,0-9.44,17.892,80.43,80.43,0,0,0-3.23,16.9h114.8Q1341.905,408.922,1329.23,395.005Zm-79.77,135.181q15.9,15.411,45.73,15.407,21.36,0,36.77-10.686t18.89-22.613h62.12q-14.91,46.221-45.72,66.1t-74.55,19.879q-30.315,0-54.67-9.691A113.667,113.667,0,0,1,1196.78,561a124.176,124.176,0,0,1-26.09-42.741q-9.2-24.845-9.19-54.668a149.791,149.791,0,0,1,9.44-53.675,124.223,124.223,0,0,1,68.34-71.566q24.09-10.437,53.42-10.437,32.8,0,57.16,12.673a114.167,114.167,0,0,1,40,34.044,140.113,140.113,0,0,1,22.62,48.7,181.806,181.806,0,0,1,4.97,57.153H1232.07Q1233.555,514.78,1249.46,530.186Zm317.58-149.1q-16.9,0-28.33,7.7a61.162,61.162,0,0,0-18.64,19.879,85.866,85.866,0,0,0-10.18,26.838,145.473,145.473,0,0,0-2.99,29.074,139.42,139.42,0,0,0,2.99,28.328A87.128,87.128,0,0,0,1519.58,519a55.547,55.547,0,0,0,18.14,19.134q11.415,7.455,27.83,7.455,25.35,0,39.01-14.165t17.15-38.019h68.08q-6.96,51.193-39.75,78.027t-84,26.837q-28.815,0-52.92-9.691a117.179,117.179,0,0,1-41.01-27.086,123.273,123.273,0,0,1-26.34-41.5q-9.435-24.1-9.44-52.93a171.154,171.154,0,0,1,8.7-55.414,124.646,124.646,0,0,1,25.59-44.232,117.142,117.142,0,0,1,41.25-29.073q24.345-10.437,55.67-10.437a161.167,161.167,0,0,1,43.98,5.964,117.461,117.461,0,0,1,37.77,18.14,97.2,97.2,0,0,1,27.09,30.316q10.425,18.149,11.92,42.989h-69.08q-6.96-44.228-52.18-44.231h0Zm214.7-144.127V427.309l88.96-92.439h83.49L1857.28,429.3l107.85,162.515h-85.49l-70.57-114.8-27.33,26.341v88.463h-70.57V236.963h70.57Z"/>
  <path class="cls-2" d="M656.452,626.187H48.168A322.024,322.024,0,0,1,29.7,518.419c0-178.17,144.436-322.606,322.607-322.606S674.916,340.249,674.916,518.419A322.023,322.023,0,0,1,656.452,626.187Z"/>
  <path id="Ellipse_1_copy_2" data-name="Ellipse 1 copy 2" class="cls-3" d="M684.454,646H20.165A351.681,351.681,0,0,1,0,528.309C0,333.734,157.734,176,352.309,176s352.31,157.734,352.31,352.309A351.671,351.671,0,0,1,684.454,646ZM484.51,253.668a351,351,0,0,1,94.109,239.641q0,14.493-1.171,28.691h-208q1.148-14.2,1.171-28.691A351.272,351.272,0,0,0,260.662,237.63C136.951,276.545,47.224,392.14,47.224,528.7a305.959,305.959,0,0,0,8.005,69.691H649.39a305.993,305.993,0,0,0,8-69.691C657.4,407.569,586.8,302.926,484.51,253.668Z"/>
  <path id="Polygon_5" data-name="Polygon 5" class="cls-4" d="M613.531,68.59L601.164,99.276l12.207,30.751L582.685,117.66l-30.751,12.207L564.3,99.181,552.094,68.43,582.781,80.8Z"/>
  <path id="Polygon_5_copy" data-name="Polygon 5 copy" class="cls-4" d="M686.359,0.372l11.82,16.6,20.009,3.869-16.6,11.821-3.869,20.009L685.9,36.071,665.888,32.2l16.6-11.821Z"/>
  <path id="Polygon_5_copy_2" data-name="Polygon 5 copy 2" class="cls-4" d="M726.751,94.4L751,150.982l56.582,24.249L751,199.48l-24.249,56.582L702.5,199.48,645.92,175.231,702.5,150.982Z"/>
</svg>
